solid ascii
  facet normal 1.000000e+000 0.000000e+000 0.000000e+000
    outer loop
      vertex   4.000000e+000 0.000000e+000 0.000000e+000
      vertex   4.000000e+000 -1.462392e+000 -3.337814e-001
      vertex   4.000000e+000 -1.351453e+000 -6.508256e-001
    endloop
  endfacet
  facet normal 1.000000e+000 -0.000000e+000 0.000000e+000
    outer loop
      vertex   4.000000e+000 -1.351453e+000 -6.508256e-001
      vertex   4.000000e+000 -1.172747e+000 -9.352347e-001
      vertex   4.000000e+000 0.000000e+000 0.000000e+000
    endloop
  endfacet
  facet normal 1.000000e+000 -0.000000e+000 0.000000e+000
    outer loop
      vertex   4.000000e+000 -1.172747e+000 -9.352347e-001
      vertex   4.000000e+000 -9.352347e-001 -1.172747e+000
      vertex   4.000000e+000 0.000000e+000 0.000000e+000
    endloop
  endfacet
  facet normal 1.000000e+000 -0.000000e+000 0.000000e+000
    outer loop
      vertex   4.000000e+000 -9.352347e-001 -1.172747e+000
      vertex   4.000000e+000 -6.508256e-001 -1.351453e+000
      vertex   4.000000e+000 0.000000e+000 0.000000e+000
    endloop
  endfacet
  facet normal 1.000000e+000 -0.000000e+000 0.000000e+000
    outer loop
      vertex   4.000000e+000 -6.508256e-001 -1.351453e+000
      vertex   4.000000e+000 -3.337814e-001 -1.462392e+000
      vertex   4.000000e+000 0.000000e+000 0.000000e+000
    endloop
  endfacet
  facet normal 1.000000e+000 -0.000000e+000 0.000000e+000
    outer loop
      vertex   4.000000e+000 -3.337814e-001 -1.462392e+000
      vertex   4.000000e+000 1.836970e-016 -1.500000e+000
      vertex   4.000000e+000 0.000000e+000 0.000000e+000
    endloop
  endfacet
  facet normal 1.000000e+000 0.000000e+000 -0.000000e+000
    outer loop
      vertex   4.000000e+000 1.836970e-016 -1.500000e+000
      vertex   4.000000e+000 3.337814e-001 -1.462392e+000
      vertex   4.000000e+000 0.000000e+000 0.000000e+000
    endloop
  endfacet
  facet normal 1.000000e+000 0.000000e+000 -0.000000e+000
    outer loop
      vertex   4.000000e+000 3.337814e-001 -1.462392e+000
      vertex   4.000000e+000 6.508256e-001 -1.351453e+000
      vertex   4.000000e+000 0.000000e+000 0.000000e+000
    endloop
  endfacet
  facet normal 1.000000e+000 0.000000e+000 -0.000000e+000
    outer loop
      vertex   4.000000e+000 6.508256e-001 -1.351453e+000
      vertex   4.000000e+000 9.352347e-001 -1.172747e+000
      vertex   4.000000e+000 0.000000e+000 0.000000e+000
    endloop
  endfacet
  facet normal 1.000000e+000 0.000000e+000 -0.000000e+000
    outer loop
      vertex   4.000000e+000 9.352347e-001 -1.172747e+000
      vertex   4.000000e+000 1.172747e+000 -9.352347e-001
      vertex   4.000000e+000 0.000000e+000 0.000000e+000
    endloop
  endfacet
  facet normal 1.000000e+000 0.000000e+000 -0.000000e+000
    outer loop
      vertex   4.000000e+000 1.172747e+000 -9.352347e-001
      vertex   4.000000e+000 1.351453e+000 -6.508256e-001
      vertex   4.000000e+000 0.000000e+000 0.000000e+000
    endloop
  endfacet
  facet normal 1.000000e+000 0.000000e+000 -0.000000e+000
    outer loop
      vertex   4.000000e+000 1.351453e+000 -6.508256e-001
      vertex   4.000000e+000 1.462392e+000 -3.337814e-001
      vertex   4.000000e+000 0.000000e+000 0.000000e+000
    endloop
  endfacet
  facet normal 1.000000e+000 0.000000e+000 -0.000000e+000
    outer loop
      vertex   4.000000e+000 1.462392e+000 -3.337814e-001
      vertex   4.000000e+000 1.500000e+000 9.184851e-017
      vertex   4.000000e+000 0.000000e+000 0.000000e+000
    endloop
  endfacet
  facet normal 1.000000e+000 0.000000e+000 0.000000e+000
    outer loop
      vertex   4.000000e+000 1.500000e+000 9.184851e-017
      vertex   4.000000e+000 1.462392e+000 3.337814e-001
      vertex   4.000000e+000 0.000000e+000 0.000000e+000
    endloop
  endfacet
  facet normal 1.000000e+000 0.000000e+000 0.000000e+000
    outer loop
      vertex   4.000000e+000 1.462392e+000 3.337814e-001
      vertex   4.000000e+000 1.351453e+000 6.508256e-001
      vertex   4.000000e+000 0.000000e+000 0.000000e+000
    endloop
  endfacet
  facet normal 1.000000e+000 0.000000e+000 0.000000e+000
    outer loop
      vertex   4.000000e+000 1.351453e+000 6.508256e-001
      vertex   4.000000e+000 1.172747e+000 9.352347e-001
      vertex   4.000000e+000 0.000000e+000 0.000000e+000
    endloop
  endfacet
  facet normal 1.000000e+000 0.000000e+000 0.000000e+000
    outer loop
      vertex   4.000000e+000 1.172747e+000 9.352347e-001
      vertex   4.000000e+000 9.352347e-001 1.172747e+000
      vertex   4.000000e+000 0.000000e+000 0.000000e+000
    endloop
  endfacet
  facet normal 1.000000e+000 0.000000e+000 0.000000e+000
    outer loop
      vertex   4.000000e+000 9.352347e-001 1.172747e+000
      vertex   4.000000e+000 6.508256e-001 1.351453e+000
      vertex   4.000000e+000 0.000000e+000 0.000000e+000
    endloop
  endfacet
  facet normal 1.000000e+000 0.000000e+000 0.000000e+000
    outer loop
      vertex   4.000000e+000 6.508256e-001 1.351453e+000
      vertex   4.000000e+000 3.337814e-001 1.462392e+000
      vertex   4.000000e+000 0.000000e+000 0.000000e+000
    endloop
  endfacet
  facet normal 1.000000e+000 0.000000e+000 0.000000e+000
    outer loop
      vertex   4.000000e+000 3.337814e-001 1.462392e+000
      vertex   4.000000e+000 0.000000e+000 1.500000e+000
      vertex   4.000000e+000 0.000000e+000 0.000000e+000
    endloop
  endfacet
  facet normal 1.000000e+000 0.000000e+000 0.000000e+000
    outer loop
      vertex   4.000000e+000 0.000000e+000 1.500000e+000
      vertex   4.000000e+000 -3.337814e-001 1.462392e+000
      vertex   4.000000e+000 0.000000e+000 0.000000e+000
    endloop
  endfacet
  facet normal 1.000000e+000 0.000000e+000 0.000000e+000
    outer loop
      vertex   4.000000e+000 -3.337814e-001 1.462392e+000
      vertex   4.000000e+000 -6.508256e-001 1.351453e+000
      vertex   4.000000e+000 0.000000e+000 0.000000e+000
    endloop
  endfacet
  facet normal 1.000000e+000 0.000000e+000 0.000000e+000
    outer loop
      vertex   4.000000e+000 -6.508256e-001 1.351453e+000
      vertex   4.000000e+000 -9.352347e-001 1.172747e+000
      vertex   4.000000e+000 0.000000e+000 0.000000e+000
    endloop
  endfacet
  facet normal 1.000000e+000 0.000000e+000 0.000000e+000
    outer loop
      vertex   4.000000e+000 -9.352347e-001 1.172747e+000
      vertex   4.000000e+000 -1.172747e+000 9.352347e-001
      vertex   4.000000e+000 0.000000e+000 0.000000e+000
    endloop
  endfacet
  facet normal 1.000000e+000 0.000000e+000 0.000000e+000
    outer loop
      vertex   4.000000e+000 -1.172747e+000 9.352347e-001
      vertex   4.000000e+000 -1.351453e+000 6.508256e-001
      vertex   4.000000e+000 0.000000e+000 0.000000e+000
    endloop
  endfacet
  facet normal 1.000000e+000 0.000000e+000 0.000000e+000
    outer loop
      vertex   4.000000e+000 -1.351453e+000 6.508256e-001
      vertex   4.000000e+000 -1.462392e+000 3.337814e-001
      vertex   4.000000e+000 0.000000e+000 0.000000e+000
    endloop
  endfacet
  facet normal 1.000000e+000 0.000000e+000 0.000000e+000
    outer loop
      vertex   4.000000e+000 -1.462392e+000 3.337814e-001
      vertex   4.000000e+000 -1.500000e+000 -6.429396e-016
      vertex   4.000000e+000 0.000000e+000 0.000000e+000
    endloop
  endfacet
  facet normal 1.000000e+000 -0.000000e+000 0.000000e+000
    outer loop
      vertex   4.000000e+000 -1.500000e+000 -6.429396e-016
      vertex   4.000000e+000 -1.462392e+000 -3.337814e-001
      vertex   4.000000e+000 0.000000e+000 0.000000e+000
    endloop
  endfacet
  facet normal -0.000000e+000 1.119645e-001 9.937122e-001
    outer loop
      vertex   0.000000e+000 0.000000e+000 1.500000e+000
      vertex   4.000000e+000 0.000000e+000 1.500000e+000
      vertex   4.000000e+000 3.337814e-001 1.462392e+000
    endloop
  endfacet
  facet normal -0.000000e+000 3.302791e-001 9.438833e-001
    outer loop
      vertex   0.000000e+000 3.337814e-001 1.462392e+000
      vertex   4.000000e+000 3.337814e-001 1.462392e+000
      vertex   4.000000e+000 6.508256e-001 1.351453e+000
    endloop
  endfacet
  facet normal -0.000000e+000 5.320321e-001 8.467242e-001
    outer loop
      vertex   0.000000e+000 6.508256e-001 1.351453e+000
      vertex   4.000000e+000 6.508256e-001 1.351453e+000
      vertex   4.000000e+000 9.352347e-001 1.172747e+000
    endloop
  endfacet
  facet normal -0.000000e+000 7.071068e-001 7.071068e-001
    outer loop
      vertex   0.000000e+000 9.352347e-001 1.172747e+000
      vertex   4.000000e+000 9.352347e-001 1.172747e+000
      vertex   4.000000e+000 1.172747e+000 9.352347e-001
    endloop
  endfacet
  facet normal -0.000000e+000 8.467242e-001 5.320321e-001
    outer loop
      vertex   0.000000e+000 1.172747e+000 9.352347e-001
      vertex   4.000000e+000 1.172747e+000 9.352347e-001
      vertex   4.000000e+000 1.351453e+000 6.508256e-001
    endloop
  endfacet
  facet normal -0.000000e+000 9.438833e-001 3.302791e-001
    outer loop
      vertex   0.000000e+000 1.351453e+000 6.508256e-001
      vertex   4.000000e+000 1.351453e+000 6.508256e-001
      vertex   4.000000e+000 1.462392e+000 3.337814e-001
    endloop
  endfacet
  facet normal -0.000000e+000 9.937122e-001 1.119645e-001
    outer loop
      vertex   0.000000e+000 1.462392e+000 3.337814e-001
      vertex   4.000000e+000 1.462392e+000 3.337814e-001
      vertex   4.000000e+000 1.500000e+000 9.184851e-017
    endloop
  endfacet
  facet normal 0.000000e+000 9.937122e-001 -1.119645e-001
    outer loop
      vertex   0.000000e+000 1.500000e+000 9.184851e-017
      vertex   4.000000e+000 1.500000e+000 9.184851e-017
      vertex   4.000000e+000 1.462392e+000 -3.337814e-001
    endloop
  endfacet
  facet normal 0.000000e+000 9.438833e-001 -3.302791e-001
    outer loop
      vertex   0.000000e+000 1.462392e+000 -3.337814e-001
      vertex   4.000000e+000 1.462392e+000 -3.337814e-001
      vertex   4.000000e+000 1.351453e+000 -6.508256e-001
    endloop
  endfacet
  facet normal 0.000000e+000 8.467242e-001 -5.320321e-001
    outer loop
      vertex   0.000000e+000 1.351453e+000 -6.508256e-001
      vertex   4.000000e+000 1.351453e+000 -6.508256e-001
      vertex   4.000000e+000 1.172747e+000 -9.352347e-001
    endloop
  endfacet
  facet normal 0.000000e+000 7.071068e-001 -7.071068e-001
    outer loop
      vertex   0.000000e+000 1.172747e+000 -9.352347e-001
      vertex   4.000000e+000 1.172747e+000 -9.352347e-001
      vertex   4.000000e+000 9.352347e-001 -1.172747e+000
    endloop
  endfacet
  facet normal 0.000000e+000 5.320321e-001 -8.467242e-001
    outer loop
      vertex   0.000000e+000 9.352347e-001 -1.172747e+000
      vertex   4.000000e+000 9.352347e-001 -1.172747e+000
      vertex   4.000000e+000 6.508256e-001 -1.351453e+000
    endloop
  endfacet
  facet normal 0.000000e+000 3.302791e-001 -9.438833e-001
    outer loop
      vertex   0.000000e+000 6.508256e-001 -1.351453e+000
      vertex   4.000000e+000 6.508256e-001 -1.351453e+000
      vertex   4.000000e+000 3.337814e-001 -1.462392e+000
    endloop
  endfacet
  facet normal 0.000000e+000 1.119645e-001 -9.937122e-001
    outer loop
      vertex   0.000000e+000 3.337814e-001 -1.462392e+000
      vertex   4.000000e+000 3.337814e-001 -1.462392e+000
      vertex   4.000000e+000 1.836970e-016 -1.500000e+000
    endloop
  endfacet
  facet normal 0.000000e+000 -1.119645e-001 -9.937122e-001
    outer loop
      vertex   0.000000e+000 1.836970e-016 -1.500000e+000
      vertex   4.000000e+000 1.836970e-016 -1.500000e+000
      vertex   4.000000e+000 -3.337814e-001 -1.462392e+000
    endloop
  endfacet
  facet normal 0.000000e+000 -3.302791e-001 -9.438833e-001
    outer loop
      vertex   0.000000e+000 -3.337814e-001 -1.462392e+000
      vertex   4.000000e+000 -3.337814e-001 -1.462392e+000
      vertex   4.000000e+000 -6.508256e-001 -1.351453e+000
    endloop
  endfacet
  facet normal 0.000000e+000 -5.320321e-001 -8.467242e-001
    outer loop
      vertex   0.000000e+000 -6.508256e-001 -1.351453e+000
      vertex   4.000000e+000 -6.508256e-001 -1.351453e+000
      vertex   4.000000e+000 -9.352347e-001 -1.172747e+000
    endloop
  endfacet
  facet normal 0.000000e+000 -7.071068e-001 -7.071068e-001
    outer loop
      vertex   0.000000e+000 -9.352347e-001 -1.172747e+000
      vertex   4.000000e+000 -9.352347e-001 -1.172747e+000
      vertex   4.000000e+000 -1.172747e+000 -9.352347e-001
    endloop
  endfacet
  facet normal 0.000000e+000 -8.467242e-001 -5.320321e-001
    outer loop
      vertex   0.000000e+000 -1.172747e+000 -9.352347e-001
      vertex   4.000000e+000 -1.172747e+000 -9.352347e-001
      vertex   4.000000e+000 -1.351453e+000 -6.508256e-001
    endloop
  endfacet
  facet normal 0.000000e+000 -9.438833e-001 -3.302791e-001
    outer loop
      vertex   0.000000e+000 -1.351453e+000 -6.508256e-001
      vertex   4.000000e+000 -1.351453e+000 -6.508256e-001
      vertex   4.000000e+000 -1.462392e+000 -3.337814e-001
    endloop
  endfacet
  facet normal 0.000000e+000 -9.937122e-001 -1.119645e-001
    outer loop
      vertex   0.000000e+000 -1.462392e+000 -3.337814e-001
      vertex   4.000000e+000 -1.462392e+000 -3.337814e-001
      vertex   4.000000e+000 -1.500000e+000 -6.429396e-016
    endloop
  endfacet
  facet normal 1.028377e-017 -9.937122e-001 1.119645e-001
    outer loop
      vertex   0.000000e+000 -1.500000e+000 -2.755455e-016
      vertex   4.000000e+000 -1.500000e+000 -6.429396e-016
      vertex   4.000000e+000 -1.462392e+000 3.337814e-001
    endloop
  endfacet
  facet normal 0.000000e+000 -9.438833e-001 3.302791e-001
    outer loop
      vertex   0.000000e+000 -1.462392e+000 3.337814e-001
      vertex   4.000000e+000 -1.462392e+000 3.337814e-001
      vertex   4.000000e+000 -1.351453e+000 6.508256e-001
    endloop
  endfacet
  facet normal 0.000000e+000 -8.467242e-001 5.320321e-001
    outer loop
      vertex   0.000000e+000 -1.351453e+000 6.508256e-001
      vertex   4.000000e+000 -1.351453e+000 6.508256e-001
      vertex   4.000000e+000 -1.172747e+000 9.352347e-001
    endloop
  endfacet
  facet normal 0.000000e+000 -7.071068e-001 7.071068e-001
    outer loop
      vertex   0.000000e+000 -1.172747e+000 9.352347e-001
      vertex   4.000000e+000 -1.172747e+000 9.352347e-001
      vertex   4.000000e+000 -9.352347e-001 1.172747e+000
    endloop
  endfacet
  facet normal 0.000000e+000 -5.320321e-001 8.467242e-001
    outer loop
      vertex   0.000000e+000 -9.352347e-001 1.172747e+000
      vertex   4.000000e+000 -9.352347e-001 1.172747e+000
      vertex   4.000000e+000 -6.508256e-001 1.351453e+000
    endloop
  endfacet
  facet normal 0.000000e+000 -3.302791e-001 9.438833e-001
    outer loop
      vertex   0.000000e+000 -6.508256e-001 1.351453e+000
      vertex   4.000000e+000 -6.508256e-001 1.351453e+000
      vertex   4.000000e+000 -3.337814e-001 1.462392e+000
    endloop
  endfacet
  facet normal 0.000000e+000 -1.119645e-001 9.937122e-001
    outer loop
      vertex   0.000000e+000 -3.337814e-001 1.462392e+000
      vertex   4.000000e+000 -3.337814e-001 1.462392e+000
      vertex   4.000000e+000 0.000000e+000 1.500000e+000
    endloop
  endfacet
  facet normal 0.000000e+000 -1.119645e-001 9.937122e-001
    outer loop
      vertex   4.000000e+000 0.000000e+000 1.500000e+000
      vertex   0.000000e+000 0.000000e+000 1.500000e+000
      vertex   0.000000e+000 -3.337814e-001 1.462392e+000
    endloop
  endfacet
  facet normal 0.000000e+000 -3.302791e-001 9.438833e-001
    outer loop
      vertex   4.000000e+000 -3.337814e-001 1.462392e+000
      vertex   0.000000e+000 -3.337814e-001 1.462392e+000
      vertex   0.000000e+000 -6.508256e-001 1.351453e+000
    endloop
  endfacet
  facet normal 0.000000e+000 -5.320321e-001 8.467242e-001
    outer loop
      vertex   4.000000e+000 -6.508256e-001 1.351453e+000
      vertex   0.000000e+000 -6.508256e-001 1.351453e+000
      vertex   0.000000e+000 -9.352347e-001 1.172747e+000
    endloop
  endfacet
  facet normal 0.000000e+000 -7.071068e-001 7.071068e-001
    outer loop
      vertex   4.000000e+000 -9.352347e-001 1.172747e+000
      vertex   0.000000e+000 -9.352347e-001 1.172747e+000
      vertex   0.000000e+000 -1.172747e+000 9.352347e-001
    endloop
  endfacet
  facet normal 0.000000e+000 -8.467242e-001 5.320321e-001
    outer loop
      vertex   4.000000e+000 -1.172747e+000 9.352347e-001
      vertex   0.000000e+000 -1.172747e+000 9.352347e-001
      vertex   0.000000e+000 -1.351453e+000 6.508256e-001
    endloop
  endfacet
  facet normal 0.000000e+000 -9.438833e-001 3.302791e-001
    outer loop
      vertex   4.000000e+000 -1.351453e+000 6.508256e-001
      vertex   0.000000e+000 -1.351453e+000 6.508256e-001
      vertex   0.000000e+000 -1.462392e+000 3.337814e-001
    endloop
  endfacet
  facet normal 0.000000e+000 -9.937122e-001 1.119645e-001
    outer loop
      vertex   4.000000e+000 -1.462392e+000 3.337814e-001
      vertex   0.000000e+000 -1.462392e+000 3.337814e-001
      vertex   0.000000e+000 -1.500000e+000 -2.755455e-016
    endloop
  endfacet
  facet normal -1.028377e-017 -9.937122e-001 -1.119645e-001
    outer loop
      vertex   4.000000e+000 -1.500000e+000 -6.429396e-016
      vertex   0.000000e+000 -1.500000e+000 -2.755455e-016
      vertex   0.000000e+000 -1.462392e+000 -3.337814e-001
    endloop
  endfacet
  facet normal -0.000000e+000 -9.438833e-001 -3.302791e-001
    outer loop
      vertex   4.000000e+000 -1.462392e+000 -3.337814e-001
      vertex   0.000000e+000 -1.462392e+000 -3.337814e-001
      vertex   0.000000e+000 -1.351453e+000 -6.508256e-001
    endloop
  endfacet
  facet normal -0.000000e+000 -8.467242e-001 -5.320321e-001
    outer loop
      vertex   4.000000e+000 -1.351453e+000 -6.508256e-001
      vertex   0.000000e+000 -1.351453e+000 -6.508256e-001
      vertex   0.000000e+000 -1.172747e+000 -9.352347e-001
    endloop
  endfacet
  facet normal -0.000000e+000 -7.071068e-001 -7.071068e-001
    outer loop
      vertex   4.000000e+000 -1.172747e+000 -9.352347e-001
      vertex   0.000000e+000 -1.172747e+000 -9.352347e-001
      vertex   0.000000e+000 -9.352347e-001 -1.172747e+000
    endloop
  endfacet
  facet normal -0.000000e+000 -5.320321e-001 -8.467242e-001
    outer loop
      vertex   4.000000e+000 -9.352347e-001 -1.172747e+000
      vertex   0.000000e+000 -9.352347e-001 -1.172747e+000
      vertex   0.000000e+000 -6.508256e-001 -1.351453e+000
    endloop
  endfacet
  facet normal -0.000000e+000 -3.302791e-001 -9.438833e-001
    outer loop
      vertex   4.000000e+000 -6.508256e-001 -1.351453e+000
      vertex   0.000000e+000 -6.508256e-001 -1.351453e+000
      vertex   0.000000e+000 -3.337814e-001 -1.462392e+000
    endloop
  endfacet
  facet normal -0.000000e+000 -1.119645e-001 -9.937122e-001
    outer loop
      vertex   4.000000e+000 -3.337814e-001 -1.462392e+000
      vertex   0.000000e+000 -3.337814e-001 -1.462392e+000
      vertex   0.000000e+000 1.836970e-016 -1.500000e+000
    endloop
  endfacet
  facet normal 0.000000e+000 1.119645e-001 -9.937122e-001
    outer loop
      vertex   4.000000e+000 1.836970e-016 -1.500000e+000
      vertex   0.000000e+000 1.836970e-016 -1.500000e+000
      vertex   0.000000e+000 3.337814e-001 -1.462392e+000
    endloop
  endfacet
  facet normal 0.000000e+000 3.302791e-001 -9.438833e-001
    outer loop
      vertex   4.000000e+000 3.337814e-001 -1.462392e+000
      vertex   0.000000e+000 3.337814e-001 -1.462392e+000
      vertex   0.000000e+000 6.508256e-001 -1.351453e+000
    endloop
  endfacet
  facet normal 0.000000e+000 5.320321e-001 -8.467242e-001
    outer loop
      vertex   4.000000e+000 6.508256e-001 -1.351453e+000
      vertex   0.000000e+000 6.508256e-001 -1.351453e+000
      vertex   0.000000e+000 9.352347e-001 -1.172747e+000
    endloop
  endfacet
  facet normal 0.000000e+000 7.071068e-001 -7.071068e-001
    outer loop
      vertex   4.000000e+000 9.352347e-001 -1.172747e+000
      vertex   0.000000e+000 9.352347e-001 -1.172747e+000
      vertex   0.000000e+000 1.172747e+000 -9.352347e-001
    endloop
  endfacet
  facet normal 0.000000e+000 8.467242e-001 -5.320321e-001
    outer loop
      vertex   4.000000e+000 1.172747e+000 -9.352347e-001
      vertex   0.000000e+000 1.172747e+000 -9.352347e-001
      vertex   0.000000e+000 1.351453e+000 -6.508256e-001
    endloop
  endfacet
  facet normal 0.000000e+000 9.438833e-001 -3.302791e-001
    outer loop
      vertex   4.000000e+000 1.351453e+000 -6.508256e-001
      vertex   0.000000e+000 1.351453e+000 -6.508256e-001
      vertex   0.000000e+000 1.462392e+000 -3.337814e-001
    endloop
  endfacet
  facet normal 0.000000e+000 9.937122e-001 -1.119645e-001
    outer loop
      vertex   4.000000e+000 1.462392e+000 -3.337814e-001
      vertex   0.000000e+000 1.462392e+000 -3.337814e-001
      vertex   0.000000e+000 1.500000e+000 9.184851e-017
    endloop
  endfacet
  facet normal 0.000000e+000 9.937122e-001 1.119645e-001
    outer loop
      vertex   4.000000e+000 1.500000e+000 9.184851e-017
      vertex   0.000000e+000 1.500000e+000 9.184851e-017
      vertex   0.000000e+000 1.462392e+000 3.337814e-001
    endloop
  endfacet
  facet normal 0.000000e+000 9.438833e-001 3.302791e-001
    outer loop
      vertex   4.000000e+000 1.462392e+000 3.337814e-001
      vertex   0.000000e+000 1.462392e+000 3.337814e-001
      vertex   0.000000e+000 1.351453e+000 6.508256e-001
    endloop
  endfacet
  facet normal 0.000000e+000 8.467242e-001 5.320321e-001
    outer loop
      vertex   4.000000e+000 1.351453e+000 6.508256e-001
      vertex   0.000000e+000 1.351453e+000 6.508256e-001
      vertex   0.000000e+000 1.172747e+000 9.352347e-001
    endloop
  endfacet
  facet normal 0.000000e+000 7.071068e-001 7.071068e-001
    outer loop
      vertex   4.000000e+000 1.172747e+000 9.352347e-001
      vertex   0.000000e+000 1.172747e+000 9.352347e-001
      vertex   0.000000e+000 9.352347e-001 1.172747e+000
    endloop
  endfacet
  facet normal 0.000000e+000 5.320321e-001 8.467242e-001
    outer loop
      vertex   4.000000e+000 9.352347e-001 1.172747e+000
      vertex   0.000000e+000 9.352347e-001 1.172747e+000
      vertex   0.000000e+000 6.508256e-001 1.351453e+000
    endloop
  endfacet
  facet normal 0.000000e+000 3.302791e-001 9.438833e-001
    outer loop
      vertex   4.000000e+000 6.508256e-001 1.351453e+000
      vertex   0.000000e+000 6.508256e-001 1.351453e+000
      vertex   0.000000e+000 3.337814e-001 1.462392e+000
    endloop
  endfacet
  facet normal 0.000000e+000 1.119645e-001 9.937122e-001
    outer loop
      vertex   4.000000e+000 3.337814e-001 1.462392e+000
      vertex   0.000000e+000 3.337814e-001 1.462392e+000
      vertex   0.000000e+000 0.000000e+000 1.500000e+000
    endloop
  endfacet
  facet normal 1.000000e+000 0.000000e+000 0.000000e+000
    outer loop
      vertex   0.000000e+000 1.035534e+000 2.500000e+000
      vertex   0.000000e+000 9.352347e-001 1.172747e+000
      vertex   0.000000e+000 1.172747e+000 9.352347e-001
    endloop
  endfacet
  facet normal 1.000000e+000 0.000000e+000 0.000000e+000
    outer loop
      vertex   0.000000e+000 1.035534e+000 2.500000e+000
      vertex   0.000000e+000 -1.035534e+000 2.500000e+000
      vertex   0.000000e+000 0.000000e+000 1.500000e+000
    endloop
  endfacet
  facet normal 1.000000e+000 0.000000e+000 -0.000000e+000
    outer loop
      vertex   0.000000e+000 2.500000e+000 -1.035534e+000
      vertex   0.000000e+000 2.500000e+000 1.035534e+000
      vertex   0.000000e+000 1.500000e+000 9.184851e-017
    endloop
  endfacet
  facet normal 1.000000e+000 0.000000e+000 0.000000e+000
    outer loop
      vertex   0.000000e+000 1.035534e+000 2.500000e+000
      vertex   0.000000e+000 6.508256e-001 1.351453e+000
      vertex   0.000000e+000 9.352347e-001 1.172747e+000
    endloop
  endfacet
  facet normal 1.000000e+000 0.000000e+000 0.000000e+000
    outer loop
      vertex   0.000000e+000 -1.035534e+000 2.500000e+000
      vertex   0.000000e+000 -3.337814e-001 1.462392e+000
      vertex   0.000000e+000 0.000000e+000 1.500000e+000
    endloop
  endfacet
  facet normal 1.000000e+000 0.000000e+000 0.000000e+000
    outer loop
      vertex   0.000000e+000 2.500000e+000 -1.035534e+000
      vertex   0.000000e+000 1.462392e+000 -3.337814e-001
      vertex   0.000000e+000 1.351453e+000 -6.508256e-001
    endloop
  endfacet
  facet normal 1.000000e+000 0.000000e+000 0.000000e+000
    outer loop
      vertex   0.000000e+000 2.500000e+000 1.035534e+000
      vertex   0.000000e+000 1.462392e+000 3.337814e-001
      vertex   0.000000e+000 1.500000e+000 9.184851e-017
    endloop
  endfacet
  facet normal 1.000000e+000 0.000000e+000 0.000000e+000
    outer loop
      vertex   0.000000e+000 2.500000e+000 1.035534e+000
      vertex   0.000000e+000 1.172747e+000 9.352347e-001
      vertex   0.000000e+000 1.351453e+000 6.508256e-001
    endloop
  endfacet
  facet normal 1.000000e+000 0.000000e+000 0.000000e+000
    outer loop
      vertex   0.000000e+000 1.035534e+000 2.500000e+000
      vertex   0.000000e+000 3.337814e-001 1.462392e+000
      vertex   0.000000e+000 6.508256e-001 1.351453e+000
    endloop
  endfacet
  facet normal 1.000000e+000 0.000000e+000 0.000000e+000
    outer loop
      vertex   0.000000e+000 -1.035534e+000 2.500000e+000
      vertex   0.000000e+000 -6.508256e-001 1.351453e+000
      vertex   0.000000e+000 -3.337814e-001 1.462392e+000
    endloop
  endfacet
  facet normal 1.000000e+000 -0.000000e+000 0.000000e+000
    outer loop
      vertex   0.000000e+000 -2.500000e+000 1.035534e+000
      vertex   0.000000e+000 -1.172747e+000 9.352347e-001
      vertex   0.000000e+000 -9.352347e-001 1.172747e+000
    endloop
  endfacet
  facet normal 1.000000e+000 0.000000e+000 0.000000e+000
    outer loop
      vertex   0.000000e+000 1.500000e+000 9.184851e-017
      vertex   0.000000e+000 1.462392e+000 -3.337814e-001
      vertex   0.000000e+000 2.500000e+000 -1.035534e+000
    endloop
  endfacet
  facet normal 1.000000e+000 0.000000e+000 -0.000000e+000
    outer loop
      vertex   0.000000e+000 1.172747e+000 9.352347e-001
      vertex   0.000000e+000 2.500000e+000 1.035534e+000
      vertex   0.000000e+000 1.035534e+000 2.500000e+000
    endloop
  endfacet
  facet normal 1.000000e+000 0.000000e+000 0.000000e+000
    outer loop
      vertex   0.000000e+000 -1.035534e+000 2.500000e+000
      vertex   0.000000e+000 -9.352347e-001 1.172747e+000
      vertex   0.000000e+000 -6.508256e-001 1.351453e+000
    endloop
  endfacet
  facet normal 1.000000e+000 0.000000e+000 0.000000e+000
    outer loop
      vertex   0.000000e+000 -2.500000e+000 1.035534e+000
      vertex   0.000000e+000 -1.351453e+000 6.508256e-001
      vertex   0.000000e+000 -1.172747e+000 9.352347e-001
    endloop
  endfacet
  facet normal 1.000000e+000 0.000000e+000 0.000000e+000
    outer loop
      vertex   0.000000e+000 -2.500000e+000 1.035534e+000
      vertex   0.000000e+000 -2.500000e+000 -1.035534e+000
      vertex   0.000000e+000 -1.500000e+000 -2.755455e-016
    endloop
  endfacet
  facet normal 1.000000e+000 -0.000000e+000 0.000000e+000
    outer loop
      vertex   0.000000e+000 1.351453e+000 6.508256e-001
      vertex   0.000000e+000 1.462392e+000 3.337814e-001
      vertex   0.000000e+000 2.500000e+000 1.035534e+000
    endloop
  endfacet
  facet normal 1.000000e+000 0.000000e+000 0.000000e+000
    outer loop
      vertex   0.000000e+000 -9.352347e-001 1.172747e+000
      vertex   0.000000e+000 -1.035534e+000 2.500000e+000
      vertex   0.000000e+000 -2.500000e+000 1.035534e+000
    endloop
  endfacet
  facet normal 1.000000e+000 0.000000e+000 0.000000e+000
    outer loop
      vertex   0.000000e+000 -2.500000e+000 -1.035534e+000
      vertex   0.000000e+000 -1.462392e+000 -3.337814e-001
      vertex   0.000000e+000 -1.500000e+000 -2.755455e-016
    endloop
  endfacet
  facet normal 1.000000e+000 0.000000e+000 -0.000000e+000
    outer loop
      vertex   0.000000e+000 -1.035534e+000 -2.500000e+000
      vertex   0.000000e+000 -9.352347e-001 -1.172747e+000
      vertex   0.000000e+000 -1.172747e+000 -9.352347e-001
    endloop
  endfacet
  facet normal 1.000000e+000 0.000000e+000 0.000000e+000
    outer loop
      vertex   0.000000e+000 1.035534e+000 -2.500000e+000
      vertex   0.000000e+000 9.352347e-001 -1.172747e+000
      vertex   0.000000e+000 6.508256e-001 -1.351453e+000
    endloop
  endfacet
  facet normal 1.000000e+000 0.000000e+000 0.000000e+000
    outer loop
      vertex   0.000000e+000 1.035534e+000 -2.500000e+000
      vertex   0.000000e+000 2.500000e+000 -1.035534e+000
      vertex   0.000000e+000 1.172747e+000 -9.352347e-001
    endloop
  endfacet
  facet normal 1.000000e+000 -0.000000e+000 0.000000e+000
    outer loop
      vertex   0.000000e+000 0.000000e+000 1.500000e+000
      vertex   0.000000e+000 3.337814e-001 1.462392e+000
      vertex   0.000000e+000 1.035534e+000 2.500000e+000
    endloop
  endfacet
  facet normal 1.000000e+000 0.000000e+000 -0.000000e+000
    outer loop
      vertex   0.000000e+000 -1.500000e+000 -2.755455e-016
      vertex   0.000000e+000 -1.462392e+000 3.337814e-001
      vertex   0.000000e+000 -2.500000e+000 1.035534e+000
    endloop
  endfacet
  facet normal 1.000000e+000 0.000000e+000 0.000000e+000
    outer loop
      vertex   0.000000e+000 -2.500000e+000 -1.035534e+000
      vertex   0.000000e+000 -1.172747e+000 -9.352347e-001
      vertex   0.000000e+000 -1.351453e+000 -6.508256e-001
    endloop
  endfacet
  facet normal 1.000000e+000 0.000000e+000 0.000000e+000
    outer loop
      vertex   0.000000e+000 -1.035534e+000 -2.500000e+000
      vertex   0.000000e+000 -6.508256e-001 -1.351453e+000
      vertex   0.000000e+000 -9.352347e-001 -1.172747e+000
    endloop
  endfacet
  facet normal 1.000000e+000 0.000000e+000 0.000000e+000
    outer loop
      vertex   0.000000e+000 1.172747e+000 -9.352347e-001
      vertex   0.000000e+000 9.352347e-001 -1.172747e+000
      vertex   0.000000e+000 1.035534e+000 -2.500000e+000
    endloop
  endfacet
  facet normal 1.000000e+000 0.000000e+000 -0.000000e+000
    outer loop
      vertex   0.000000e+000 -1.462392e+000 3.337814e-001
      vertex   0.000000e+000 -1.351453e+000 6.508256e-001
      vertex   0.000000e+000 -2.500000e+000 1.035534e+000
    endloop
  endfacet
  facet normal 1.000000e+000 0.000000e+000 0.000000e+000
    outer loop
      vertex   0.000000e+000 -1.172747e+000 -9.352347e-001
      vertex   0.000000e+000 -2.500000e+000 -1.035534e+000
      vertex   0.000000e+000 -1.035534e+000 -2.500000e+000
    endloop
  endfacet
  facet normal 1.000000e+000 0.000000e+000 0.000000e+000
    outer loop
      vertex   0.000000e+000 -1.035534e+000 -2.500000e+000
      vertex   0.000000e+000 1.836970e-016 -1.500000e+000
      vertex   0.000000e+000 -3.337814e-001 -1.462392e+000
    endloop
  endfacet
  facet normal 1.000000e+000 0.000000e+000 0.000000e+000
    outer loop
      vertex   0.000000e+000 1.351453e+000 -6.508256e-001
      vertex   0.000000e+000 1.172747e+000 -9.352347e-001
      vertex   0.000000e+000 2.500000e+000 -1.035534e+000
    endloop
  endfacet
  facet normal 1.000000e+000 0.000000e+000 0.000000e+000
    outer loop
      vertex   0.000000e+000 -3.337814e-001 -1.462392e+000
      vertex   0.000000e+000 -6.508256e-001 -1.351453e+000
      vertex   0.000000e+000 -1.035534e+000 -2.500000e+000
    endloop
  endfacet
  facet normal 1.000000e+000 0.000000e+000 0.000000e+000
    outer loop
      vertex   0.000000e+000 1.035534e+000 -2.500000e+000
      vertex   0.000000e+000 3.337814e-001 -1.462392e+000
      vertex   0.000000e+000 1.836970e-016 -1.500000e+000
    endloop
  endfacet
  facet normal 1.000000e+000 0.000000e+000 0.000000e+000
    outer loop
      vertex   0.000000e+000 -1.351453e+000 -6.508256e-001
      vertex   0.000000e+000 -1.462392e+000 -3.337814e-001
      vertex   0.000000e+000 -2.500000e+000 -1.035534e+000
    endloop
  endfacet
  facet normal 1.000000e+000 0.000000e+000 0.000000e+000
    outer loop
      vertex   0.000000e+000 6.508256e-001 -1.351453e+000
      vertex   0.000000e+000 3.337814e-001 -1.462392e+000
      vertex   0.000000e+000 1.035534e+000 -2.500000e+000
    endloop
  endfacet
  facet normal 1.000000e+000 0.000000e+000 0.000000e+000
    outer loop
      vertex   0.000000e+000 1.836970e-016 -1.500000e+000
      vertex   0.000000e+000 -1.035534e+000 -2.500000e+000
      vertex   0.000000e+000 1.035534e+000 -2.500000e+000
    endloop
  endfacet
  facet normal 0.000000e+000 7.071068e-001 -7.071068e-001
    outer loop
      vertex   -5.000000e+000 2.500000e+000 -1.035534e+000
      vertex   0.000000e+000 2.500000e+000 -1.035534e+000
      vertex   0.000000e+000 1.035534e+000 -2.500000e+000
    endloop
  endfacet
  facet normal 0.000000e+000 7.071068e-001 -7.071068e-001
    outer loop
      vertex   0.000000e+000 1.035534e+000 -2.500000e+000
      vertex   -5.000000e+000 1.035534e+000 -2.500000e+000
      vertex   -5.000000e+000 2.500000e+000 -1.035534e+000
    endloop
  endfacet
  facet normal 0.000000e+000 0.000000e+000 -1.000000e+000
    outer loop
      vertex   -5.000000e+000 1.035534e+000 -2.500000e+000
      vertex   0.000000e+000 1.035534e+000 -2.500000e+000
      vertex   0.000000e+000 -1.035534e+000 -2.500000e+000
    endloop
  endfacet
  facet normal 0.000000e+000 0.000000e+000 -1.000000e+000
    outer loop
      vertex   0.000000e+000 -1.035534e+000 -2.500000e+000
      vertex   -5.000000e+000 -1.035534e+000 -2.500000e+000
      vertex   -5.000000e+000 1.035534e+000 -2.500000e+000
    endloop
  endfacet
  facet normal 0.000000e+000 -7.071068e-001 -7.071068e-001
    outer loop
      vertex   -5.000000e+000 -1.035534e+000 -2.500000e+000
      vertex   0.000000e+000 -1.035534e+000 -2.500000e+000
      vertex   0.000000e+000 -2.500000e+000 -1.035534e+000
    endloop
  endfacet
  facet normal -0.000000e+000 -7.071068e-001 -7.071068e-001
    outer loop
      vertex   0.000000e+000 -2.500000e+000 -1.035534e+000
      vertex   -5.000000e+000 -2.500000e+000 -1.035534e+000
      vertex   -5.000000e+000 -1.035534e+000 -2.500000e+000
    endloop
  endfacet
  facet normal 0.000000e+000 -1.000000e+000 0.000000e+000
    outer loop
      vertex   -5.000000e+000 -2.500000e+000 -1.035534e+000
      vertex   0.000000e+000 -2.500000e+000 -1.035534e+000
      vertex   0.000000e+000 -2.500000e+000 1.035534e+000
    endloop
  endfacet
  facet normal -0.000000e+000 -1.000000e+000 0.000000e+000
    outer loop
      vertex   0.000000e+000 -2.500000e+000 1.035534e+000
      vertex   -5.000000e+000 -2.500000e+000 1.035534e+000
      vertex   -5.000000e+000 -2.500000e+000 -1.035534e+000
    endloop
  endfacet
  facet normal 0.000000e+000 -7.071068e-001 7.071068e-001
    outer loop
      vertex   -5.000000e+000 -2.500000e+000 1.035534e+000
      vertex   0.000000e+000 -2.500000e+000 1.035534e+000
      vertex   0.000000e+000 -1.035534e+000 2.500000e+000
    endloop
  endfacet
  facet normal 0.000000e+000 -7.071068e-001 7.071068e-001
    outer loop
      vertex   0.000000e+000 -1.035534e+000 2.500000e+000
      vertex   -5.000000e+000 -1.035534e+000 2.500000e+000
      vertex   -5.000000e+000 -2.500000e+000 1.035534e+000
    endloop
  endfacet
  facet normal 0.000000e+000 -2.093996e-016 1.000000e+000
    outer loop
      vertex   -5.000000e+000 -1.035534e+000 2.500000e+000
      vertex   0.000000e+000 -1.035534e+000 2.500000e+000
      vertex   0.000000e+000 1.035534e+000 2.500000e+000
    endloop
  endfacet
  facet normal 0.000000e+000 -2.093996e-016 1.000000e+000
    outer loop
      vertex   0.000000e+000 1.035534e+000 2.500000e+000
      vertex   -5.000000e+000 1.035534e+000 2.500000e+000
      vertex   -5.000000e+000 -1.035534e+000 2.500000e+000
    endloop
  endfacet
  facet normal -0.000000e+000 7.071068e-001 7.071068e-001
    outer loop
      vertex   -5.000000e+000 1.035534e+000 2.500000e+000
      vertex   0.000000e+000 1.035534e+000 2.500000e+000
      vertex   0.000000e+000 2.500000e+000 1.035534e+000
    endloop
  endfacet
  facet normal 0.000000e+000 7.071068e-001 7.071068e-001
    outer loop
      vertex   0.000000e+000 2.500000e+000 1.035534e+000
      vertex   -5.000000e+000 2.500000e+000 1.035534e+000
      vertex   -5.000000e+000 1.035534e+000 2.500000e+000
    endloop
  endfacet
  facet normal -0.000000e+000 1.000000e+000 0.000000e+000
    outer loop
      vertex   -5.000000e+000 2.500000e+000 1.035534e+000
      vertex   0.000000e+000 2.500000e+000 1.035534e+000
      vertex   0.000000e+000 2.500000e+000 -1.035534e+000
    endloop
  endfacet
  facet normal 0.000000e+000 1.000000e+000 0.000000e+000
    outer loop
      vertex   0.000000e+000 2.500000e+000 -1.035534e+000
      vertex   -5.000000e+000 2.500000e+000 -1.035534e+000
      vertex   -5.000000e+000 2.500000e+000 1.035534e+000
    endloop
  endfacet
  facet normal -1.000000e+000 0.000000e+000 0.000000e+000
    outer loop
      vertex   -5.000000e+000 1.035534e+000 2.500000e+000
      vertex   -5.000000e+000 9.352347e-001 1.172747e+000
      vertex   -5.000000e+000 6.508256e-001 1.351453e+000
    endloop
  endfacet
  facet normal -1.000000e+000 0.000000e+000 0.000000e+000
    outer loop
      vertex   -5.000000e+000 1.035534e+000 2.500000e+000
      vertex   -5.000000e+000 2.500000e+000 1.035534e+000
      vertex   -5.000000e+000 1.172747e+000 9.352347e-001
    endloop
  endfacet
  facet normal -1.000000e+000 0.000000e+000 0.000000e+000
    outer loop
      vertex   -5.000000e+000 1.172747e+000 9.352347e-001
      vertex   -5.000000e+000 9.352347e-001 1.172747e+000
      vertex   -5.000000e+000 1.035534e+000 2.500000e+000
    endloop
  endfacet
  facet normal -1.000000e+000 0.000000e+000 0.000000e+000
    outer loop
      vertex   -5.000000e+000 2.500000e+000 1.035534e+000
      vertex   -5.000000e+000 1.351453e+000 6.508256e-001
      vertex   -5.000000e+000 1.172747e+000 9.352347e-001
    endloop
  endfacet
  facet normal -1.000000e+000 0.000000e+000 0.000000e+000
    outer loop
      vertex   -5.000000e+000 2.500000e+000 1.035534e+000
      vertex   -5.000000e+000 1.462392e+000 3.337814e-001
      vertex   -5.000000e+000 1.351453e+000 6.508256e-001
    endloop
  endfacet
  facet normal -1.000000e+000 0.000000e+000 -0.000000e+000
    outer loop
      vertex   -5.000000e+000 2.500000e+000 1.035534e+000
      vertex   -5.000000e+000 2.500000e+000 -1.035534e+000
      vertex   -5.000000e+000 1.500000e+000 9.184851e-017
    endloop
  endfacet
  facet normal -1.000000e+000 0.000000e+000 0.000000e+000
    outer loop
      vertex   -5.000000e+000 -2.500000e+000 1.035534e+000
      vertex   -5.000000e+000 -1.035534e+000 2.500000e+000
      vertex   -5.000000e+000 -9.352347e-001 1.172747e+000
    endloop
  endfacet
  facet normal -1.000000e+000 0.000000e+000 0.000000e+000
    outer loop
      vertex   -5.000000e+000 6.508256e-001 1.351453e+000
      vertex   -5.000000e+000 3.337814e-001 1.462392e+000
      vertex   -5.000000e+000 1.035534e+000 2.500000e+000
    endloop
  endfacet
  facet normal -1.000000e+000 0.000000e+000 0.000000e+000
    outer loop
      vertex   -5.000000e+000 2.500000e+000 -1.035534e+000
      vertex   -5.000000e+000 1.462392e+000 -3.337814e-001
      vertex   -5.000000e+000 1.500000e+000 9.184851e-017
    endloop
  endfacet
  facet normal -1.000000e+000 0.000000e+000 0.000000e+000
    outer loop
      vertex   -5.000000e+000 -1.035534e+000 -2.500000e+000
      vertex   -5.000000e+000 -2.500000e+000 -1.035534e+000
      vertex   -5.000000e+000 -1.172747e+000 -9.352347e-001
    endloop
  endfacet
  facet normal -1.000000e+000 0.000000e+000 0.000000e+000
    outer loop
      vertex   -5.000000e+000 -9.352347e-001 1.172747e+000
      vertex   -5.000000e+000 -1.172747e+000 9.352347e-001
      vertex   -5.000000e+000 -2.500000e+000 1.035534e+000
    endloop
  endfacet
  facet normal -1.000000e+000 0.000000e+000 0.000000e+000
    outer loop
      vertex   -5.000000e+000 1.500000e+000 9.184851e-017
      vertex   -5.000000e+000 1.462392e+000 3.337814e-001
      vertex   -5.000000e+000 2.500000e+000 1.035534e+000
    endloop
  endfacet
  facet normal -1.000000e+000 0.000000e+000 0.000000e+000
    outer loop
      vertex   -5.000000e+000 2.500000e+000 -1.035534e+000
      vertex   -5.000000e+000 1.172747e+000 -9.352347e-001
      vertex   -5.000000e+000 1.351453e+000 -6.508256e-001
    endloop
  endfacet
  facet normal -1.000000e+000 0.000000e+000 0.000000e+000
    outer loop
      vertex   -5.000000e+000 1.035534e+000 -2.500000e+000
      vertex   -5.000000e+000 9.352347e-001 -1.172747e+000
      vertex   -5.000000e+000 1.172747e+000 -9.352347e-001
    endloop
  endfacet
  facet normal -1.000000e+000 0.000000e+000 0.000000e+000
    outer loop
      vertex   -5.000000e+000 1.035534e+000 -2.500000e+000
      vertex   -5.000000e+000 3.337814e-001 -1.462392e+000
      vertex   -5.000000e+000 6.508256e-001 -1.351453e+000
    endloop
  endfacet
  facet normal -1.000000e+000 0.000000e+000 0.000000e+000
    outer loop
      vertex   -5.000000e+000 1.035534e+000 -2.500000e+000
      vertex   -5.000000e+000 -1.035534e+000 -2.500000e+000
      vertex   -5.000000e+000 1.836970e-016 -1.500000e+000
    endloop
  endfacet
  facet normal -1.000000e+000 0.000000e+000 0.000000e+000
    outer loop
      vertex   -5.000000e+000 -1.035534e+000 -2.500000e+000
      vertex   -5.000000e+000 -6.508256e-001 -1.351453e+000
      vertex   -5.000000e+000 -3.337814e-001 -1.462392e+000
    endloop
  endfacet
  facet normal -1.000000e+000 0.000000e+000 0.000000e+000
    outer loop
      vertex   -5.000000e+000 -1.172747e+000 -9.352347e-001
      vertex   -5.000000e+000 -9.352347e-001 -1.172747e+000
      vertex   -5.000000e+000 -1.035534e+000 -2.500000e+000
    endloop
  endfacet
  facet normal -1.000000e+000 0.000000e+000 0.000000e+000
    outer loop
      vertex   -5.000000e+000 -2.500000e+000 -1.035534e+000
      vertex   -5.000000e+000 -1.462392e+000 -3.337814e-001
      vertex   -5.000000e+000 -1.351453e+000 -6.508256e-001
    endloop
  endfacet
  facet normal -1.000000e+000 0.000000e+000 0.000000e+000
    outer loop
      vertex   -5.000000e+000 -2.500000e+000 -1.035534e+000
      vertex   -5.000000e+000 -2.500000e+000 1.035534e+000
      vertex   -5.000000e+000 -1.500000e+000 -6.429396e-016
    endloop
  endfacet
  facet normal -1.000000e+000 0.000000e+000 0.000000e+000
    outer loop
      vertex   -5.000000e+000 -1.035534e+000 2.500000e+000
      vertex   -5.000000e+000 -6.508256e-001 1.351453e+000
      vertex   -5.000000e+000 -9.352347e-001 1.172747e+000
    endloop
  endfacet
  facet normal -1.000000e+000 0.000000e+000 0.000000e+000
    outer loop
      vertex   -5.000000e+000 1.351453e+000 -6.508256e-001
      vertex   -5.000000e+000 1.462392e+000 -3.337814e-001
      vertex   -5.000000e+000 2.500000e+000 -1.035534e+000
    endloop
  endfacet
  facet normal -1.000000e+000 0.000000e+000 0.000000e+000
    outer loop
      vertex   -5.000000e+000 6.508256e-001 -1.351453e+000
      vertex   -5.000000e+000 9.352347e-001 -1.172747e+000
      vertex   -5.000000e+000 1.035534e+000 -2.500000e+000
    endloop
  endfacet
  facet normal -1.000000e+000 0.000000e+000 -0.000000e+000
    outer loop
      vertex   -5.000000e+000 -3.337814e-001 -1.462392e+000
      vertex   -5.000000e+000 1.836970e-016 -1.500000e+000
      vertex   -5.000000e+000 -1.035534e+000 -2.500000e+000
    endloop
  endfacet
  facet normal -1.000000e+000 0.000000e+000 -0.000000e+000
    outer loop
      vertex   -5.000000e+000 -1.351453e+000 -6.508256e-001
      vertex   -5.000000e+000 -1.172747e+000 -9.352347e-001
      vertex   -5.000000e+000 -2.500000e+000 -1.035534e+000
    endloop
  endfacet
  facet normal -1.000000e+000 0.000000e+000 0.000000e+000
    outer loop
      vertex   -5.000000e+000 -2.500000e+000 1.035534e+000
      vertex   -5.000000e+000 -1.462392e+000 3.337814e-001
      vertex   -5.000000e+000 -1.500000e+000 -6.429396e-016
    endloop
  endfacet
  facet normal -1.000000e+000 0.000000e+000 0.000000e+000
    outer loop
      vertex   -5.000000e+000 -1.035534e+000 2.500000e+000
      vertex   -5.000000e+000 -3.337814e-001 1.462392e+000
      vertex   -5.000000e+000 -6.508256e-001 1.351453e+000
    endloop
  endfacet
  facet normal -1.000000e+000 0.000000e+000 0.000000e+000
    outer loop
      vertex   -5.000000e+000 -1.035534e+000 2.500000e+000
      vertex   -5.000000e+000 1.035534e+000 2.500000e+000
      vertex   -5.000000e+000 0.000000e+000 1.500000e+000
    endloop
  endfacet
  facet normal -1.000000e+000 0.000000e+000 -0.000000e+000
    outer loop
      vertex   -5.000000e+000 1.172747e+000 -9.352347e-001
      vertex   -5.000000e+000 2.500000e+000 -1.035534e+000
      vertex   -5.000000e+000 1.035534e+000 -2.500000e+000
    endloop
  endfacet
  facet normal -1.000000e+000 0.000000e+000 -0.000000e+000
    outer loop
      vertex   -5.000000e+000 -9.352347e-001 -1.172747e+000
      vertex   -5.000000e+000 -6.508256e-001 -1.351453e+000
      vertex   -5.000000e+000 -1.035534e+000 -2.500000e+000
    endloop
  endfacet
  facet normal -1.000000e+000 0.000000e+000 0.000000e+000
    outer loop
      vertex   -5.000000e+000 -2.500000e+000 1.035534e+000
      vertex   -5.000000e+000 -1.351453e+000 6.508256e-001
      vertex   -5.000000e+000 -1.462392e+000 3.337814e-001
    endloop
  endfacet
  facet normal -1.000000e+000 -0.000000e+000 0.000000e+000
    outer loop
      vertex   -5.000000e+000 0.000000e+000 1.500000e+000
      vertex   -5.000000e+000 -3.337814e-001 1.462392e+000
      vertex   -5.000000e+000 -1.035534e+000 2.500000e+000
    endloop
  endfacet
  facet normal -1.000000e+000 0.000000e+000 0.000000e+000
    outer loop
      vertex   -5.000000e+000 1.836970e-016 -1.500000e+000
      vertex   -5.000000e+000 3.337814e-001 -1.462392e+000
      vertex   -5.000000e+000 1.035534e+000 -2.500000e+000
    endloop
  endfacet
  facet normal -1.000000e+000 -0.000000e+000 0.000000e+000
    outer loop
      vertex   -5.000000e+000 -1.172747e+000 9.352347e-001
      vertex   -5.000000e+000 -1.351453e+000 6.508256e-001
      vertex   -5.000000e+000 -2.500000e+000 1.035534e+000
    endloop
  endfacet
  facet normal -1.000000e+000 0.000000e+000 -0.000000e+000
    outer loop
      vertex   -5.000000e+000 -1.500000e+000 -6.429396e-016
      vertex   -5.000000e+000 -1.462392e+000 -3.337814e-001
      vertex   -5.000000e+000 -2.500000e+000 -1.035534e+000
    endloop
  endfacet
  facet normal -1.000000e+000 0.000000e+000 0.000000e+000
    outer loop
      vertex   -5.000000e+000 3.337814e-001 1.462392e+000
      vertex   -5.000000e+000 0.000000e+000 1.500000e+000
      vertex   -5.000000e+000 1.035534e+000 2.500000e+000
    endloop
  endfacet
  facet normal 0.000000e+000 1.119645e-001 -9.937122e-001
    outer loop
      vertex   -5.000000e+000 -3.337814e-001 1.462392e+000
      vertex   -5.000000e+000 0.000000e+000 1.500000e+000
      vertex   -1.000000e+000 0.000000e+000 1.500000e+000
    endloop
  endfacet
  facet normal 0.000000e+000 3.302791e-001 -9.438833e-001
    outer loop
      vertex   -5.000000e+000 -6.508256e-001 1.351453e+000
      vertex   -5.000000e+000 -3.337814e-001 1.462392e+000
      vertex   -1.000000e+000 -3.337814e-001 1.462392e+000
    endloop
  endfacet
  facet normal 0.000000e+000 5.320321e-001 -8.467242e-001
    outer loop
      vertex   -5.000000e+000 -9.352347e-001 1.172747e+000
      vertex   -5.000000e+000 -6.508256e-001 1.351453e+000
      vertex   -1.000000e+000 -6.508256e-001 1.351453e+000
    endloop
  endfacet
  facet normal 0.000000e+000 7.071068e-001 -7.071068e-001
    outer loop
      vertex   -5.000000e+000 -1.172747e+000 9.352347e-001
      vertex   -5.000000e+000 -9.352347e-001 1.172747e+000
      vertex   -1.000000e+000 -9.352347e-001 1.172747e+000
    endloop
  endfacet
  facet normal 0.000000e+000 8.467242e-001 -5.320321e-001
    outer loop
      vertex   -5.000000e+000 -1.351453e+000 6.508256e-001
      vertex   -5.000000e+000 -1.172747e+000 9.352347e-001
      vertex   -1.000000e+000 -1.172747e+000 9.352347e-001
    endloop
  endfacet
  facet normal 0.000000e+000 9.438833e-001 -3.302791e-001
    outer loop
      vertex   -5.000000e+000 -1.462392e+000 3.337814e-001
      vertex   -5.000000e+000 -1.351453e+000 6.508256e-001
      vertex   -1.000000e+000 -1.351453e+000 6.508256e-001
    endloop
  endfacet
  facet normal 0.000000e+000 9.937122e-001 -1.119645e-001
    outer loop
      vertex   -5.000000e+000 -1.500000e+000 -6.429396e-016
      vertex   -5.000000e+000 -1.462392e+000 3.337814e-001
      vertex   -1.000000e+000 -1.462392e+000 3.337814e-001
    endloop
  endfacet
  facet normal -1.108183e-017 9.937122e-001 1.119645e-001
    outer loop
      vertex   -5.000000e+000 -1.462392e+000 -3.337814e-001
      vertex   -5.000000e+000 -1.500000e+000 -6.429396e-016
      vertex   -1.000000e+000 -1.500000e+000 -2.755455e-016
    endloop
  endfacet
  facet normal 0.000000e+000 9.438833e-001 3.302791e-001
    outer loop
      vertex   -5.000000e+000 -1.351453e+000 -6.508256e-001
      vertex   -5.000000e+000 -1.462392e+000 -3.337814e-001
      vertex   -1.000000e+000 -1.462392e+000 -3.337814e-001
    endloop
  endfacet
  facet normal 0.000000e+000 8.467242e-001 5.320321e-001
    outer loop
      vertex   -5.000000e+000 -1.172747e+000 -9.352347e-001
      vertex   -5.000000e+000 -1.351453e+000 -6.508256e-001
      vertex   -1.000000e+000 -1.351453e+000 -6.508256e-001
    endloop
  endfacet
  facet normal 0.000000e+000 7.071068e-001 7.071068e-001
    outer loop
      vertex   -5.000000e+000 -9.352347e-001 -1.172747e+000
      vertex   -5.000000e+000 -1.172747e+000 -9.352347e-001
      vertex   -1.000000e+000 -1.172747e+000 -9.352347e-001
    endloop
  endfacet
  facet normal 0.000000e+000 5.320321e-001 8.467242e-001
    outer loop
      vertex   -5.000000e+000 -6.508256e-001 -1.351453e+000
      vertex   -5.000000e+000 -9.352347e-001 -1.172747e+000
      vertex   -1.000000e+000 -9.352347e-001 -1.172747e+000
    endloop
  endfacet
  facet normal 0.000000e+000 3.302791e-001 9.438833e-001
    outer loop
      vertex   -5.000000e+000 -3.337814e-001 -1.462392e+000
      vertex   -5.000000e+000 -6.508256e-001 -1.351453e+000
      vertex   -1.000000e+000 -6.508256e-001 -1.351453e+000
    endloop
  endfacet
  facet normal 0.000000e+000 1.119645e-001 9.937122e-001
    outer loop
      vertex   -5.000000e+000 1.836970e-016 -1.500000e+000
      vertex   -5.000000e+000 -3.337814e-001 -1.462392e+000
      vertex   -1.000000e+000 -3.337814e-001 -1.462392e+000
    endloop
  endfacet
  facet normal 0.000000e+000 -1.119645e-001 9.937122e-001
    outer loop
      vertex   -5.000000e+000 3.337814e-001 -1.462392e+000
      vertex   -5.000000e+000 1.836970e-016 -1.500000e+000
      vertex   -1.000000e+000 1.836970e-016 -1.500000e+000
    endloop
  endfacet
  facet normal 0.000000e+000 -3.302791e-001 9.438833e-001
    outer loop
      vertex   -5.000000e+000 6.508256e-001 -1.351453e+000
      vertex   -5.000000e+000 3.337814e-001 -1.462392e+000
      vertex   -1.000000e+000 3.337814e-001 -1.462392e+000
    endloop
  endfacet
  facet normal 0.000000e+000 -5.320321e-001 8.467242e-001
    outer loop
      vertex   -5.000000e+000 9.352347e-001 -1.172747e+000
      vertex   -5.000000e+000 6.508256e-001 -1.351453e+000
      vertex   -1.000000e+000 6.508256e-001 -1.351453e+000
    endloop
  endfacet
  facet normal 0.000000e+000 -7.071068e-001 7.071068e-001
    outer loop
      vertex   -5.000000e+000 1.172747e+000 -9.352347e-001
      vertex   -5.000000e+000 9.352347e-001 -1.172747e+000
      vertex   -1.000000e+000 9.352347e-001 -1.172747e+000
    endloop
  endfacet
  facet normal 0.000000e+000 -8.467242e-001 5.320321e-001
    outer loop
      vertex   -5.000000e+000 1.351453e+000 -6.508256e-001
      vertex   -5.000000e+000 1.172747e+000 -9.352347e-001
      vertex   -1.000000e+000 1.172747e+000 -9.352347e-001
    endloop
  endfacet
  facet normal 0.000000e+000 -9.438833e-001 3.302791e-001
    outer loop
      vertex   -5.000000e+000 1.462392e+000 -3.337814e-001
      vertex   -5.000000e+000 1.351453e+000 -6.508256e-001
      vertex   -1.000000e+000 1.351453e+000 -6.508256e-001
    endloop
  endfacet
  facet normal 0.000000e+000 -9.937122e-001 1.119645e-001
    outer loop
      vertex   -5.000000e+000 1.500000e+000 9.184851e-017
      vertex   -5.000000e+000 1.462392e+000 -3.337814e-001
      vertex   -1.000000e+000 1.462392e+000 -3.337814e-001
    endloop
  endfacet
  facet normal 0.000000e+000 -9.937122e-001 -1.119645e-001
    outer loop
      vertex   -5.000000e+000 1.462392e+000 3.337814e-001
      vertex   -5.000000e+000 1.500000e+000 9.184851e-017
      vertex   -1.000000e+000 1.500000e+000 9.184851e-017
    endloop
  endfacet
  facet normal 0.000000e+000 -9.438833e-001 -3.302791e-001
    outer loop
      vertex   -5.000000e+000 1.351453e+000 6.508256e-001
      vertex   -5.000000e+000 1.462392e+000 3.337814e-001
      vertex   -1.000000e+000 1.462392e+000 3.337814e-001
    endloop
  endfacet
  facet normal 0.000000e+000 -8.467242e-001 -5.320321e-001
    outer loop
      vertex   -5.000000e+000 1.172747e+000 9.352347e-001
      vertex   -5.000000e+000 1.351453e+000 6.508256e-001
      vertex   -1.000000e+000 1.351453e+000 6.508256e-001
    endloop
  endfacet
  facet normal 0.000000e+000 -7.071068e-001 -7.071068e-001
    outer loop
      vertex   -5.000000e+000 9.352347e-001 1.172747e+000
      vertex   -5.000000e+000 1.172747e+000 9.352347e-001
      vertex   -1.000000e+000 1.172747e+000 9.352347e-001
    endloop
  endfacet
  facet normal 0.000000e+000 -5.320321e-001 -8.467242e-001
    outer loop
      vertex   -5.000000e+000 6.508256e-001 1.351453e+000
      vertex   -5.000000e+000 9.352347e-001 1.172747e+000
      vertex   -1.000000e+000 9.352347e-001 1.172747e+000
    endloop
  endfacet
  facet normal 0.000000e+000 -3.302791e-001 -9.438833e-001
    outer loop
      vertex   -5.000000e+000 3.337814e-001 1.462392e+000
      vertex   -5.000000e+000 6.508256e-001 1.351453e+000
      vertex   -1.000000e+000 6.508256e-001 1.351453e+000
    endloop
  endfacet
  facet normal 0.000000e+000 -1.119645e-001 -9.937122e-001
    outer loop
      vertex   -5.000000e+000 0.000000e+000 1.500000e+000
      vertex   -5.000000e+000 3.337814e-001 1.462392e+000
      vertex   -1.000000e+000 3.337814e-001 1.462392e+000
    endloop
  endfacet
  facet normal 0.000000e+000 -1.119645e-001 -9.937122e-001
    outer loop
      vertex   -1.000000e+000 3.337814e-001 1.462392e+000
      vertex   -1.000000e+000 0.000000e+000 1.500000e+000
      vertex   -5.000000e+000 0.000000e+000 1.500000e+000
    endloop
  endfacet
  facet normal 0.000000e+000 -3.302791e-001 -9.438833e-001
    outer loop
      vertex   -1.000000e+000 6.508256e-001 1.351453e+000
      vertex   -1.000000e+000 3.337814e-001 1.462392e+000
      vertex   -5.000000e+000 3.337814e-001 1.462392e+000
    endloop
  endfacet
  facet normal 0.000000e+000 -5.320321e-001 -8.467242e-001
    outer loop
      vertex   -1.000000e+000 9.352347e-001 1.172747e+000
      vertex   -1.000000e+000 6.508256e-001 1.351453e+000
      vertex   -5.000000e+000 6.508256e-001 1.351453e+000
    endloop
  endfacet
  facet normal 0.000000e+000 -7.071068e-001 -7.071068e-001
    outer loop
      vertex   -1.000000e+000 1.172747e+000 9.352347e-001
      vertex   -1.000000e+000 9.352347e-001 1.172747e+000
      vertex   -5.000000e+000 9.352347e-001 1.172747e+000
    endloop
  endfacet
  facet normal 0.000000e+000 -8.467242e-001 -5.320321e-001
    outer loop
      vertex   -1.000000e+000 1.351453e+000 6.508256e-001
      vertex   -1.000000e+000 1.172747e+000 9.352347e-001
      vertex   -5.000000e+000 1.172747e+000 9.352347e-001
    endloop
  endfacet
  facet normal 0.000000e+000 -9.438833e-001 -3.302791e-001
    outer loop
      vertex   -1.000000e+000 1.462392e+000 3.337814e-001
      vertex   -1.000000e+000 1.351453e+000 6.508256e-001
      vertex   -5.000000e+000 1.351453e+000 6.508256e-001
    endloop
  endfacet
  facet normal 0.000000e+000 -9.937122e-001 -1.119645e-001
    outer loop
      vertex   -1.000000e+000 1.500000e+000 9.184851e-017
      vertex   -1.000000e+000 1.462392e+000 3.337814e-001
      vertex   -5.000000e+000 1.462392e+000 3.337814e-001
    endloop
  endfacet
  facet normal 0.000000e+000 -9.937122e-001 1.119645e-001
    outer loop
      vertex   -1.000000e+000 1.462392e+000 -3.337814e-001
      vertex   -1.000000e+000 1.500000e+000 9.184851e-017
      vertex   -5.000000e+000 1.500000e+000 9.184851e-017
    endloop
  endfacet
  facet normal 0.000000e+000 -9.438833e-001 3.302791e-001
    outer loop
      vertex   -1.000000e+000 1.351453e+000 -6.508256e-001
      vertex   -1.000000e+000 1.462392e+000 -3.337814e-001
      vertex   -5.000000e+000 1.462392e+000 -3.337814e-001
    endloop
  endfacet
  facet normal 0.000000e+000 -8.467242e-001 5.320321e-001
    outer loop
      vertex   -1.000000e+000 1.172747e+000 -9.352347e-001
      vertex   -1.000000e+000 1.351453e+000 -6.508256e-001
      vertex   -5.000000e+000 1.351453e+000 -6.508256e-001
    endloop
  endfacet
  facet normal 0.000000e+000 -7.071068e-001 7.071068e-001
    outer loop
      vertex   -1.000000e+000 9.352347e-001 -1.172747e+000
      vertex   -1.000000e+000 1.172747e+000 -9.352347e-001
      vertex   -5.000000e+000 1.172747e+000 -9.352347e-001
    endloop
  endfacet
  facet normal 0.000000e+000 -5.320321e-001 8.467242e-001
    outer loop
      vertex   -1.000000e+000 6.508256e-001 -1.351453e+000
      vertex   -1.000000e+000 9.352347e-001 -1.172747e+000
      vertex   -5.000000e+000 9.352347e-001 -1.172747e+000
    endloop
  endfacet
  facet normal 0.000000e+000 -3.302791e-001 9.438833e-001
    outer loop
      vertex   -1.000000e+000 3.337814e-001 -1.462392e+000
      vertex   -1.000000e+000 6.508256e-001 -1.351453e+000
      vertex   -5.000000e+000 6.508256e-001 -1.351453e+000
    endloop
  endfacet
  facet normal 0.000000e+000 -1.119645e-001 9.937122e-001
    outer loop
      vertex   -1.000000e+000 1.836970e-016 -1.500000e+000
      vertex   -1.000000e+000 3.337814e-001 -1.462392e+000
      vertex   -5.000000e+000 3.337814e-001 -1.462392e+000
    endloop
  endfacet
  facet normal 0.000000e+000 1.119645e-001 9.937122e-001
    outer loop
      vertex   -1.000000e+000 -3.337814e-001 -1.462392e+000
      vertex   -1.000000e+000 1.836970e-016 -1.500000e+000
      vertex   -5.000000e+000 1.836970e-016 -1.500000e+000
    endloop
  endfacet
  facet normal 0.000000e+000 3.302791e-001 9.438833e-001
    outer loop
      vertex   -1.000000e+000 -6.508256e-001 -1.351453e+000
      vertex   -1.000000e+000 -3.337814e-001 -1.462392e+000
      vertex   -5.000000e+000 -3.337814e-001 -1.462392e+000
    endloop
  endfacet
  facet normal 0.000000e+000 5.320321e-001 8.467242e-001
    outer loop
      vertex   -1.000000e+000 -9.352347e-001 -1.172747e+000
      vertex   -1.000000e+000 -6.508256e-001 -1.351453e+000
      vertex   -5.000000e+000 -6.508256e-001 -1.351453e+000
    endloop
  endfacet
  facet normal 0.000000e+000 7.071068e-001 7.071068e-001
    outer loop
      vertex   -1.000000e+000 -1.172747e+000 -9.352347e-001
      vertex   -1.000000e+000 -9.352347e-001 -1.172747e+000
      vertex   -5.000000e+000 -9.352347e-001 -1.172747e+000
    endloop
  endfacet
  facet normal 0.000000e+000 8.467242e-001 5.320321e-001
    outer loop
      vertex   -1.000000e+000 -1.351453e+000 -6.508256e-001
      vertex   -1.000000e+000 -1.172747e+000 -9.352347e-001
      vertex   -5.000000e+000 -1.172747e+000 -9.352347e-001
    endloop
  endfacet
  facet normal 0.000000e+000 9.438833e-001 3.302791e-001
    outer loop
      vertex   -1.000000e+000 -1.462392e+000 -3.337814e-001
      vertex   -1.000000e+000 -1.351453e+000 -6.508256e-001
      vertex   -5.000000e+000 -1.351453e+000 -6.508256e-001
    endloop
  endfacet
  facet normal 0.000000e+000 9.937122e-001 1.119645e-001
    outer loop
      vertex   -1.000000e+000 -1.500000e+000 -2.755455e-016
      vertex   -1.000000e+000 -1.462392e+000 -3.337814e-001
      vertex   -5.000000e+000 -1.462392e+000 -3.337814e-001
    endloop
  endfacet
  facet normal 9.850513e-018 9.937122e-001 -1.119645e-001
    outer loop
      vertex   -1.000000e+000 -1.462392e+000 3.337814e-001
      vertex   -1.000000e+000 -1.500000e+000 -2.755455e-016
      vertex   -5.000000e+000 -1.500000e+000 -6.429396e-016
    endloop
  endfacet
  facet normal 0.000000e+000 9.438833e-001 -3.302791e-001
    outer loop
      vertex   -1.000000e+000 -1.351453e+000 6.508256e-001
      vertex   -1.000000e+000 -1.462392e+000 3.337814e-001
      vertex   -5.000000e+000 -1.462392e+000 3.337814e-001
    endloop
  endfacet
  facet normal 0.000000e+000 8.467242e-001 -5.320321e-001
    outer loop
      vertex   -1.000000e+000 -1.172747e+000 9.352347e-001
      vertex   -1.000000e+000 -1.351453e+000 6.508256e-001
      vertex   -5.000000e+000 -1.351453e+000 6.508256e-001
    endloop
  endfacet
  facet normal 0.000000e+000 7.071068e-001 -7.071068e-001
    outer loop
      vertex   -1.000000e+000 -9.352347e-001 1.172747e+000
      vertex   -1.000000e+000 -1.172747e+000 9.352347e-001
      vertex   -5.000000e+000 -1.172747e+000 9.352347e-001
    endloop
  endfacet
  facet normal 0.000000e+000 5.320321e-001 -8.467242e-001
    outer loop
      vertex   -1.000000e+000 -6.508256e-001 1.351453e+000
      vertex   -1.000000e+000 -9.352347e-001 1.172747e+000
      vertex   -5.000000e+000 -9.352347e-001 1.172747e+000
    endloop
  endfacet
  facet normal 0.000000e+000 3.302791e-001 -9.438833e-001
    outer loop
      vertex   -1.000000e+000 -3.337814e-001 1.462392e+000
      vertex   -1.000000e+000 -6.508256e-001 1.351453e+000
      vertex   -5.000000e+000 -6.508256e-001 1.351453e+000
    endloop
  endfacet
  facet normal 0.000000e+000 1.119645e-001 -9.937122e-001
    outer loop
      vertex   -1.000000e+000 0.000000e+000 1.500000e+000
      vertex   -1.000000e+000 -3.337814e-001 1.462392e+000
      vertex   -5.000000e+000 -3.337814e-001 1.462392e+000
    endloop
  endfacet
  facet normal -1.000000e+000 0.000000e+000 0.000000e+000
    outer loop
      vertex   -1.000000e+000 0.000000e+000 0.000000e+000
      vertex   -1.000000e+000 -1.462392e+000 3.337814e-001
      vertex   -1.000000e+000 -1.351453e+000 6.508256e-001
    endloop
  endfacet
  facet normal -1.000000e+000 0.000000e+000 0.000000e+000
    outer loop
      vertex   -1.000000e+000 -1.351453e+000 6.508256e-001
      vertex   -1.000000e+000 -1.172747e+000 9.352347e-001
      vertex   -1.000000e+000 0.000000e+000 0.000000e+000
    endloop
  endfacet
  facet normal -1.000000e+000 0.000000e+000 0.000000e+000
    outer loop
      vertex   -1.000000e+000 -1.172747e+000 9.352347e-001
      vertex   -1.000000e+000 -9.352347e-001 1.172747e+000
      vertex   -1.000000e+000 0.000000e+000 0.000000e+000
    endloop
  endfacet
  facet normal -1.000000e+000 0.000000e+000 0.000000e+000
    outer loop
      vertex   -1.000000e+000 -9.352347e-001 1.172747e+000
      vertex   -1.000000e+000 -6.508256e-001 1.351453e+000
      vertex   -1.000000e+000 0.000000e+000 0.000000e+000
    endloop
  endfacet
  facet normal -1.000000e+000 0.000000e+000 0.000000e+000
    outer loop
      vertex   -1.000000e+000 -6.508256e-001 1.351453e+000
      vertex   -1.000000e+000 -3.337814e-001 1.462392e+000
      vertex   -1.000000e+000 0.000000e+000 0.000000e+000
    endloop
  endfacet
  facet normal -1.000000e+000 0.000000e+000 0.000000e+000
    outer loop
      vertex   -1.000000e+000 -3.337814e-001 1.462392e+000
      vertex   -1.000000e+000 0.000000e+000 1.500000e+000
      vertex   -1.000000e+000 0.000000e+000 0.000000e+000
    endloop
  endfacet
  facet normal -1.000000e+000 0.000000e+000 0.000000e+000
    outer loop
      vertex   -1.000000e+000 0.000000e+000 1.500000e+000
      vertex   -1.000000e+000 3.337814e-001 1.462392e+000
      vertex   -1.000000e+000 0.000000e+000 0.000000e+000
    endloop
  endfacet
  facet normal -1.000000e+000 0.000000e+000 -0.000000e+000
    outer loop
      vertex   -1.000000e+000 3.337814e-001 1.462392e+000
      vertex   -1.000000e+000 6.508256e-001 1.351453e+000
      vertex   -1.000000e+000 0.000000e+000 0.000000e+000
    endloop
  endfacet
  facet normal -1.000000e+000 0.000000e+000 -0.000000e+000
    outer loop
      vertex   -1.000000e+000 6.508256e-001 1.351453e+000
      vertex   -1.000000e+000 9.352347e-001 1.172747e+000
      vertex   -1.000000e+000 0.000000e+000 0.000000e+000
    endloop
  endfacet
  facet normal -1.000000e+000 0.000000e+000 -0.000000e+000
    outer loop
      vertex   -1.000000e+000 9.352347e-001 1.172747e+000
      vertex   -1.000000e+000 1.172747e+000 9.352347e-001
      vertex   -1.000000e+000 0.000000e+000 0.000000e+000
    endloop
  endfacet
  facet normal -1.000000e+000 0.000000e+000 -0.000000e+000
    outer loop
      vertex   -1.000000e+000 1.172747e+000 9.352347e-001
      vertex   -1.000000e+000 1.351453e+000 6.508256e-001
      vertex   -1.000000e+000 0.000000e+000 0.000000e+000
    endloop
  endfacet
  facet normal -1.000000e+000 0.000000e+000 -0.000000e+000
    outer loop
      vertex   -1.000000e+000 1.351453e+000 6.508256e-001
      vertex   -1.000000e+000 1.462392e+000 3.337814e-001
      vertex   -1.000000e+000 0.000000e+000 0.000000e+000
    endloop
  endfacet
  facet normal -1.000000e+000 0.000000e+000 -0.000000e+000
    outer loop
      vertex   -1.000000e+000 1.462392e+000 3.337814e-001
      vertex   -1.000000e+000 1.500000e+000 9.184851e-017
      vertex   -1.000000e+000 0.000000e+000 0.000000e+000
    endloop
  endfacet
  facet normal -1.000000e+000 0.000000e+000 0.000000e+000
    outer loop
      vertex   -1.000000e+000 1.500000e+000 9.184851e-017
      vertex   -1.000000e+000 1.462392e+000 -3.337814e-001
      vertex   -1.000000e+000 0.000000e+000 0.000000e+000
    endloop
  endfacet
  facet normal -1.000000e+000 -0.000000e+000 0.000000e+000
    outer loop
      vertex   -1.000000e+000 1.462392e+000 -3.337814e-001
      vertex   -1.000000e+000 1.351453e+000 -6.508256e-001
      vertex   -1.000000e+000 0.000000e+000 0.000000e+000
    endloop
  endfacet
  facet normal -1.000000e+000 -0.000000e+000 0.000000e+000
    outer loop
      vertex   -1.000000e+000 1.351453e+000 -6.508256e-001
      vertex   -1.000000e+000 1.172747e+000 -9.352347e-001
      vertex   -1.000000e+000 0.000000e+000 0.000000e+000
    endloop
  endfacet
  facet normal -1.000000e+000 -0.000000e+000 0.000000e+000
    outer loop
      vertex   -1.000000e+000 1.172747e+000 -9.352347e-001
      vertex   -1.000000e+000 9.352347e-001 -1.172747e+000
      vertex   -1.000000e+000 0.000000e+000 0.000000e+000
    endloop
  endfacet
  facet normal -1.000000e+000 -0.000000e+000 0.000000e+000
    outer loop
      vertex   -1.000000e+000 9.352347e-001 -1.172747e+000
      vertex   -1.000000e+000 6.508256e-001 -1.351453e+000
      vertex   -1.000000e+000 0.000000e+000 0.000000e+000
    endloop
  endfacet
  facet normal -1.000000e+000 -0.000000e+000 0.000000e+000
    outer loop
      vertex   -1.000000e+000 6.508256e-001 -1.351453e+000
      vertex   -1.000000e+000 3.337814e-001 -1.462392e+000
      vertex   -1.000000e+000 0.000000e+000 0.000000e+000
    endloop
  endfacet
  facet normal -1.000000e+000 -0.000000e+000 0.000000e+000
    outer loop
      vertex   -1.000000e+000 3.337814e-001 -1.462392e+000
      vertex   -1.000000e+000 1.836970e-016 -1.500000e+000
      vertex   -1.000000e+000 0.000000e+000 0.000000e+000
    endloop
  endfacet
  facet normal -1.000000e+000 0.000000e+000 0.000000e+000
    outer loop
      vertex   -1.000000e+000 1.836970e-016 -1.500000e+000
      vertex   -1.000000e+000 -3.337814e-001 -1.462392e+000
      vertex   -1.000000e+000 0.000000e+000 0.000000e+000
    endloop
  endfacet
  facet normal -1.000000e+000 0.000000e+000 0.000000e+000
    outer loop
      vertex   -1.000000e+000 -3.337814e-001 -1.462392e+000
      vertex   -1.000000e+000 -6.508256e-001 -1.351453e+000
      vertex   -1.000000e+000 0.000000e+000 0.000000e+000
    endloop
  endfacet
  facet normal -1.000000e+000 0.000000e+000 0.000000e+000
    outer loop
      vertex   -1.000000e+000 -6.508256e-001 -1.351453e+000
      vertex   -1.000000e+000 -9.352347e-001 -1.172747e+000
      vertex   -1.000000e+000 0.000000e+000 0.000000e+000
    endloop
  endfacet
  facet normal -1.000000e+000 0.000000e+000 0.000000e+000
    outer loop
      vertex   -1.000000e+000 -9.352347e-001 -1.172747e+000
      vertex   -1.000000e+000 -1.172747e+000 -9.352347e-001
      vertex   -1.000000e+000 0.000000e+000 0.000000e+000
    endloop
  endfacet
  facet normal -1.000000e+000 0.000000e+000 0.000000e+000
    outer loop
      vertex   -1.000000e+000 -1.172747e+000 -9.352347e-001
      vertex   -1.000000e+000 -1.351453e+000 -6.508256e-001
      vertex   -1.000000e+000 0.000000e+000 0.000000e+000
    endloop
  endfacet
  facet normal -1.000000e+000 0.000000e+000 0.000000e+000
    outer loop
      vertex   -1.000000e+000 -1.351453e+000 -6.508256e-001
      vertex   -1.000000e+000 -1.462392e+000 -3.337814e-001
      vertex   -1.000000e+000 0.000000e+000 0.000000e+000
    endloop
  endfacet
  facet normal -1.000000e+000 0.000000e+000 0.000000e+000
    outer loop
      vertex   -1.000000e+000 -1.462392e+000 -3.337814e-001
      vertex   -1.000000e+000 -1.500000e+000 -2.755455e-016
      vertex   -1.000000e+000 0.000000e+000 0.000000e+000
    endloop
  endfacet
  facet normal -1.000000e+000 0.000000e+000 0.000000e+000
    outer loop
      vertex   -1.000000e+000 -1.500000e+000 -2.755455e-016
      vertex   -1.000000e+000 -1.462392e+000 3.337814e-001
      vertex   -1.000000e+000 0.000000e+000 0.000000e+000
    endloop
  endfacet
endsolid
